<svg width="34" height="34" viewBox="0 0 34 34" fill="none" xmlns="http://www.w3.org/2000/svg">
<g clip-path="url(#clip0_1323_6640)">
<path d="M29.0425 18.0626C29.0153 18.0217 28.9744 17.9945 28.9335 17.9808C28.8926 17.9672 28.8381 17.9536 28.7972 17.9536C27.0797 17.9672 25.3759 18.1307 23.6857 18.4031C23.1405 17.9536 22.6226 17.504 22.1046 17.0272C22.6226 16.5368 23.1542 16.0736 23.6994 15.6241C25.3759 15.9102 27.0797 16.06 28.7835 16.0873C28.8517 16.0736 28.8926 16.06 28.9198 16.0464C29.0016 16.0055 29.0834 15.9102 29.1107 15.8148C29.1243 15.7739 29.1379 15.7194 29.1379 15.665C29.1379 15.6105 29.1243 15.5696 29.1107 15.5151C29.097 15.4742 29.0698 15.4334 29.0289 15.3925C29.0016 15.3516 28.9607 15.3244 28.9062 15.3108C28.8653 15.2971 28.8108 15.2835 28.7699 15.2835C27.3387 15.2699 25.9075 15.1473 24.4899 14.9429C25.6076 14.0711 26.7799 13.2537 28.0066 12.5181C28.0884 12.4636 28.1429 12.3955 28.1565 12.3001C28.1838 12.2048 28.1565 12.123 28.1156 12.0413C28.0611 11.9595 27.993 11.9051 27.8976 11.8778C27.8021 11.8506 27.7067 11.8642 27.6249 11.9051C26.1938 12.7769 24.8171 13.7305 23.5222 14.7795C22.8407 14.6569 22.1728 14.5206 21.5049 14.3572C21.6821 13.7033 21.8593 13.063 22.0637 12.4227C23.6312 11.8506 25.1578 11.1694 26.6299 10.3793C26.6981 10.3248 26.7526 10.2567 26.7662 10.1613C26.7799 10.0796 26.7662 9.98424 26.7253 9.91613C26.6844 9.83439 26.6163 9.7799 26.5345 9.75265C26.4527 9.72541 26.3573 9.72541 26.2892 9.75265C25.0079 10.4338 23.6994 11.0196 22.35 11.5372C22.8543 10.066 23.454 8.63558 24.1356 7.23243C24.1628 7.15069 24.1628 7.05533 24.1356 6.95997C24.1083 6.87824 24.0401 6.81012 23.972 6.75563C23.8902 6.71476 23.8084 6.70114 23.7266 6.72839C23.6449 6.75563 23.5631 6.7965 23.5222 6.87824C22.7316 8.47211 22.0637 10.1341 21.5185 11.8369C20.8779 12.0549 20.2372 12.2729 19.5966 12.45C19.4467 11.7961 19.3104 11.1286 19.1877 10.461C20.2509 9.16687 21.2186 7.79097 22.091 6.34695C22.1319 6.26521 22.1455 6.15623 22.1319 6.07449C22.1046 5.97913 22.0501 5.89739 21.9683 5.85653C21.9274 5.82928 21.8865 5.81566 21.832 5.80203C21.7911 5.78841 21.7366 5.80203 21.6957 5.80203C21.6548 5.81566 21.6139 5.82928 21.573 5.87015C21.5321 5.89739 21.5049 5.93826 21.4776 5.97913C20.7416 7.20519 19.9237 8.39037 19.0378 9.52106C18.8197 8.09067 18.6834 6.66027 18.6425 5.21625C18.6425 5.17539 18.6288 5.12089 18.6152 5.08003C18.6016 5.03916 18.5743 4.99829 18.5334 4.97104C18.5062 4.9438 18.4653 4.91655 18.4244 4.88931C18.3835 4.87568 18.329 4.86206 18.2881 4.86206C18.1927 4.86206 18.1109 4.90293 18.0427 4.97104C17.9746 5.03916 17.9473 5.13452 17.9473 5.22988C17.9882 6.91911 18.1518 8.60834 18.438 10.2703C17.9746 10.8289 17.4975 11.3738 16.9932 11.9051C16.5979 11.4691 16.2026 11.0332 15.821 10.5836C16.2026 8.8263 16.4343 7.04171 16.5297 5.22988C16.5297 5.13452 16.4889 5.03916 16.4343 4.97104C16.3798 4.93017 16.2844 4.88931 16.189 4.88931C16.0936 4.88931 15.9982 4.91655 15.93 4.98467C15.8619 5.05278 15.821 5.13452 15.8073 5.22988C15.7256 6.7965 15.5347 8.3495 15.2349 9.87526C14.2535 8.6492 13.3538 7.35504 12.5497 5.99275C12.5224 5.95189 12.4951 5.91102 12.4542 5.88377C12.4133 5.87015 12.3725 5.8429 12.3179 5.82928C12.277 5.81566 12.2225 5.81566 12.1816 5.82928C12.1407 5.8429 12.0862 5.85653 12.0453 5.88377C12.0044 5.91102 11.9635 5.93826 11.9363 5.97913C11.909 6.02 11.8818 6.06087 11.8818 6.10174C11.8681 6.14261 11.8681 6.1971 11.8818 6.23797C11.8954 6.27883 11.909 6.33332 11.9363 6.37419C12.8632 7.92719 13.9127 9.39846 15.0577 10.788C14.935 11.3601 14.785 11.9323 14.6351 12.4908C13.8991 12.2593 13.1767 12.014 12.4679 11.7416C11.9363 10.1068 11.282 8.49935 10.5323 6.95997C10.5051 6.91911 10.4778 6.87824 10.4506 6.85099C10.4097 6.82375 10.3688 6.7965 10.3279 6.78288C10.287 6.76926 10.2325 6.76926 10.1916 6.76926C10.1507 6.76926 10.0962 6.78288 10.0553 6.81012C9.97349 6.85099 9.90534 6.93273 9.87808 7.02809C9.85082 7.12345 9.86445 7.21881 9.90534 7.31417C10.546 8.63558 11.1048 10.0115 11.5955 11.401C10.287 10.8697 9.01936 10.2567 7.79262 9.57556C7.75173 9.54831 7.71084 9.53469 7.65631 9.53469C7.60179 9.53469 7.5609 9.53469 7.50638 9.54831C7.46549 9.56193 7.41097 9.57556 7.37007 9.61642C7.32918 9.64367 7.30192 9.68454 7.27466 9.72541C7.22014 9.80714 7.22014 9.9025 7.23377 9.99786C7.26103 10.0932 7.31555 10.175 7.39734 10.2158C8.82853 10.9923 10.3279 11.6871 11.8681 12.2865C12.0998 13.0085 12.3043 13.7305 12.4951 14.4661C11.8545 14.616 11.2002 14.7386 10.546 14.8612C9.22382 13.785 7.83351 12.8042 6.37505 11.9187C6.29327 11.8778 6.19785 11.8642 6.10244 11.8914C6.00703 11.9187 5.93888 11.9732 5.88435 12.0549C5.82983 12.1366 5.8162 12.232 5.84346 12.3137C5.87072 12.3955 5.92524 12.4772 5.9934 12.5317C7.23377 13.281 8.43325 14.112 9.56458 14.9974C8.11975 15.2018 6.67492 15.3108 5.21646 15.3244C5.12105 15.3244 5.03926 15.3653 4.97111 15.4334C4.91659 15.5151 4.8757 15.6105 4.8757 15.7058C4.8757 15.7603 4.88933 15.8012 4.90296 15.8557C4.91659 15.8965 4.94385 15.9374 4.98474 15.9783C5.012 16.0191 5.05289 16.0464 5.09379 16.06C5.13468 16.0736 5.1892 16.0873 5.23009 16.0873C6.94753 16.0736 8.65134 15.9102 10.3415 15.6377C10.8867 16.0873 11.4183 16.5504 11.9227 17.0409C11.4183 17.5177 10.8867 17.9672 10.3551 18.4031C8.66497 18.1171 6.94753 17.9672 5.23009 17.9536C5.13468 17.9536 5.03926 17.9945 4.97111 18.0626C4.90296 18.1307 4.86207 18.226 4.86207 18.335C4.86207 18.3895 4.8757 18.4304 4.88933 18.4713C4.90296 18.5121 4.93022 18.553 4.97111 18.5939C4.99837 18.6347 5.03926 18.662 5.09379 18.6756C5.13468 18.6892 5.1892 18.7028 5.23009 18.7028C6.67492 18.7165 8.11975 18.8391 9.55095 19.0434C8.41962 19.9289 7.22014 20.7463 5.97977 21.4955C5.93888 21.5228 5.89798 21.55 5.87072 21.5909C5.84346 21.6318 5.8162 21.6726 5.80257 21.7135C5.78894 21.7544 5.78894 21.8088 5.80257 21.8497C5.8162 21.8906 5.82983 21.9451 5.85709 21.9859C5.88435 22.0404 5.93888 22.0813 5.9934 22.1085C6.04792 22.1358 6.11607 22.1494 6.17059 22.1494C6.23875 22.1494 6.3069 22.1358 6.36142 22.0949C7.81988 21.2231 9.21019 20.2558 10.5187 19.1933C11.173 19.3022 11.8272 19.4385 12.4815 19.5883C12.3043 20.2695 12.1135 20.9506 11.8954 21.6181C10.3415 22.1903 8.82853 22.8714 7.37007 23.6752C7.32918 23.7024 7.28829 23.7297 7.26103 23.7705C7.23377 23.8114 7.20651 23.8523 7.19288 23.8931C7.17925 23.934 7.17925 23.9885 7.17925 24.0294C7.17925 24.0702 7.19288 24.1247 7.22014 24.1656C7.2474 24.2065 7.27466 24.2473 7.30192 24.2746C7.32918 24.3018 7.3837 24.3291 7.4246 24.3427C7.46549 24.3563 7.52001 24.3563 7.5609 24.3563C7.60179 24.3563 7.65631 24.3427 7.69721 24.3154C8.95121 23.6343 10.2597 23.0349 11.5955 22.5172C11.1048 23.9613 10.5187 25.378 9.85082 26.7539C9.82356 26.7948 9.80993 26.8493 9.80993 26.8902C9.80993 26.9446 9.80993 26.9855 9.82356 27.04C9.83719 27.0809 9.86445 27.1354 9.89171 27.1626C9.91897 27.2035 9.95986 27.2307 10.0008 27.258C10.0553 27.2852 10.1098 27.2988 10.1643 27.2988C10.2325 27.2988 10.287 27.2852 10.3551 27.2444C10.4097 27.2035 10.4506 27.1626 10.4915 27.0945C11.2684 25.5143 11.9227 23.8659 12.4679 22.1903C13.1085 21.9587 13.7491 21.7544 14.3898 21.5636C14.5533 22.2175 14.6896 22.8714 14.7987 23.5253C13.7355 24.8331 12.7677 26.2226 11.909 27.6667C11.8818 27.7075 11.8681 27.7484 11.8681 27.8029C11.8681 27.8574 11.8681 27.8982 11.8681 27.9391C11.8818 27.98 11.8954 28.0345 11.9227 28.0617C11.9499 28.1026 11.9908 28.1298 12.0317 28.1571C12.0862 28.1979 12.1544 28.2116 12.2089 28.2116C12.277 28.2116 12.3316 28.1979 12.3861 28.1571C12.4406 28.1298 12.4815 28.0753 12.5224 28.0209C13.2584 26.7812 14.0763 25.596 14.9622 24.4653C15.1803 25.8957 15.3166 27.3397 15.3575 28.7837C15.3575 28.8246 15.3712 28.8791 15.3848 28.92C15.3984 28.9608 15.4257 29.0017 15.4666 29.0289C15.4938 29.0562 15.5347 29.0834 15.5756 29.1107C15.6165 29.1243 15.6574 29.1379 15.7119 29.1379C15.7528 29.1379 15.8073 29.1243 15.8482 29.1107C15.8891 29.0971 15.93 29.0698 15.9573 29.0289C15.9845 29.0017 16.0118 28.9608 16.0254 28.9063C16.0391 28.8655 16.0527 28.811 16.0527 28.7701C15.9982 27.0809 15.8346 25.3916 15.5484 23.7297C16.0118 23.1711 16.4889 22.6262 16.9796 22.0813C17.3885 22.5036 17.7701 22.9532 18.1518 23.4027C17.7838 25.1601 17.5384 26.9583 17.4566 28.7565C17.4566 28.7974 17.4566 28.8518 17.4703 28.8927C17.4839 28.9336 17.5111 28.9745 17.5384 29.0153C17.5657 29.0562 17.6066 29.0834 17.6474 29.0971C17.6883 29.1107 17.7429 29.1243 17.7838 29.1243C17.8792 29.1243 17.9609 29.0834 18.0291 29.0153C18.0973 28.9472 18.1381 28.8655 18.1381 28.7701C18.2199 27.2035 18.4244 25.6505 18.7243 24.1111C19.7193 25.3372 20.6189 26.6313 21.4367 27.9936C21.464 28.0345 21.4912 28.0753 21.5321 28.1026C21.573 28.1298 21.6139 28.1571 21.6548 28.1707C21.6957 28.1843 21.7502 28.1843 21.7911 28.1707C21.832 28.1571 21.8865 28.1435 21.9274 28.1162C22.0092 28.0617 22.0637 27.98 22.091 27.8982C22.1182 27.8029 22.1046 27.7075 22.0501 27.6258C21.1096 26.0728 20.06 24.6015 18.9015 23.212C19.0241 22.6535 19.1604 22.0813 19.324 21.5228C20.0737 21.7544 20.8097 21.9996 21.5321 22.272C22.0637 23.9068 22.718 25.5143 23.4813 27.0536C23.5085 27.1081 23.5494 27.1626 23.604 27.2035C23.6585 27.2444 23.7266 27.258 23.7812 27.258C23.8493 27.258 23.9038 27.2444 23.9584 27.2171C24.0129 27.1899 24.0538 27.1354 24.0947 27.0809C24.1219 27.0264 24.1492 26.9583 24.1492 26.9038C24.1492 26.8357 24.1356 26.7812 24.1083 26.7131C23.4677 25.3916 22.8952 24.0157 22.4045 22.6262C23.6994 23.1575 24.967 23.7569 26.2074 24.4381C26.2892 24.4789 26.3846 24.4925 26.48 24.4789C26.5754 24.4517 26.6572 24.3972 26.6981 24.3154C26.7253 24.2746 26.739 24.2337 26.7526 24.1792C26.7662 24.1383 26.7526 24.0839 26.7526 24.043C26.739 24.0021 26.7253 23.9476 26.6981 23.9204C26.6708 23.8795 26.6299 23.8523 26.589 23.825C25.1442 23.0349 23.6585 22.3401 22.1182 21.7544C21.8865 21.046 21.6821 20.324 21.4912 19.6019C22.1455 19.4521 22.7998 19.3159 23.454 19.2069C24.7626 20.2695 26.1529 21.2367 27.6113 22.1085C27.6658 22.1494 27.734 22.163 27.8021 22.163C27.8703 22.163 27.9248 22.1494 27.9793 22.1222C28.0339 22.0949 28.0748 22.0404 28.1156 21.9996C28.1429 21.9587 28.1565 21.9178 28.1702 21.8633C28.1838 21.8225 28.1702 21.768 28.1702 21.7271C28.1565 21.6862 28.1429 21.6454 28.102 21.6045C28.0748 21.5636 28.0339 21.5364 27.993 21.5091C26.7526 20.7599 25.5667 19.9425 24.4354 19.0707C25.8666 18.8663 27.2978 18.7573 28.7426 18.7301C28.8381 18.7301 28.9335 18.6892 28.988 18.6211C29.0561 18.553 29.097 18.4576 29.097 18.3623C29.097 18.3078 29.0834 18.2669 29.0698 18.2124C29.097 18.1307 29.0698 18.0898 29.0425 18.0626ZM21.0005 18.9481C20.9597 18.9617 20.9188 18.9753 20.8779 19.0025C20.837 19.0298 20.8097 19.0707 20.7825 19.1115C20.7552 19.1524 20.7416 19.1933 20.7416 19.2478C20.7279 19.3022 20.7416 19.3431 20.7416 19.3976C20.9051 20.0787 21.096 20.7599 21.2868 21.4274C20.5916 21.1822 19.8965 20.9506 19.2013 20.7463C19.1604 20.7326 19.1059 20.7326 19.065 20.7326C19.0241 20.7326 18.9696 20.7463 18.9287 20.7735C18.8878 20.8008 18.8469 20.828 18.8197 20.8689C18.7924 20.9097 18.7651 20.9506 18.7515 20.9915C18.6016 21.5091 18.4653 22.0132 18.3426 22.5309C17.9746 22.1085 17.6066 21.6999 17.2249 21.3048C17.1567 21.2367 17.075 21.1958 16.9796 21.1958C16.8841 21.1958 16.8024 21.2367 16.7342 21.3048C16.2708 21.7952 15.821 22.2856 15.3848 22.8033C15.2621 22.2039 15.1258 21.5909 14.9759 21.0051C14.9486 20.9097 14.8941 20.8416 14.8123 20.7871C14.7305 20.7463 14.6351 20.7326 14.5533 20.7463C13.94 20.9097 13.3402 21.1005 12.7405 21.3048C12.9313 20.6645 13.1085 20.0243 13.2584 19.384C13.2721 19.3431 13.2721 19.2886 13.2584 19.2341C13.2448 19.1796 13.2312 19.1388 13.2175 19.0979C13.1903 19.057 13.163 19.0162 13.1221 18.9889C13.0812 18.9617 13.0403 18.9344 12.9995 18.9344C12.427 18.7846 11.8545 18.662 11.2684 18.5394C11.7591 18.1171 12.2362 17.6948 12.6996 17.2452C12.7677 17.1771 12.8086 17.0954 12.8086 17C12.8086 16.9046 12.7677 16.8229 12.6996 16.7548C12.2362 16.3052 11.7455 15.8693 11.2548 15.447C11.8409 15.338 12.427 15.2018 12.9995 15.0656C13.0403 15.0519 13.0812 15.0383 13.1221 15.0111C13.163 14.9838 13.1903 14.9429 13.2175 14.9021C13.2448 14.8612 13.2584 14.8203 13.2584 14.7658C13.2721 14.7114 13.2584 14.6705 13.2584 14.616C13.0949 13.9349 12.9177 13.2673 12.7132 12.5998C13.3947 12.845 14.0763 13.063 14.7578 13.2673H14.8532C14.935 13.2673 15.0031 13.2401 15.0713 13.1992C15.1394 13.1584 15.1803 13.0902 15.2076 13.0221C15.3575 12.5045 15.4938 11.9868 15.6165 11.4691C15.9845 11.8914 16.3526 12.3001 16.7342 12.7088C16.8024 12.7769 16.8978 12.8178 16.9796 12.8178C17.075 12.8178 17.1567 12.7769 17.2249 12.7088C17.6883 12.2184 18.1518 11.728 18.5879 11.2103C18.7106 11.8097 18.8469 12.4227 18.9969 13.0221C19.0105 13.1039 19.065 13.1584 19.1195 13.2128C19.1741 13.2673 19.2558 13.281 19.3376 13.281H19.4194C20.0328 13.1175 20.6325 12.9268 21.2459 12.7224C21.0551 13.3355 20.8915 13.9621 20.7416 14.5888C20.7279 14.6296 20.7279 14.6841 20.7416 14.7386C20.7416 14.7931 20.7688 14.834 20.7825 14.8748C20.8097 14.9157 20.837 14.9566 20.8779 14.9838C20.9188 15.0111 20.9597 15.0383 21.0005 15.0519C21.5867 15.2018 22.1728 15.338 22.7589 15.447C22.2545 15.8829 21.7775 16.3189 21.3004 16.7684C21.2323 16.8365 21.1914 16.9183 21.1914 17.0136C21.1914 17.109 21.2323 17.1907 21.3004 17.2588C21.7638 17.7084 22.2409 18.1443 22.7316 18.553C22.1591 18.6756 21.5867 18.8118 21.0005 18.9481Z" fill="black"/>
</g>
<defs>
<clipPath id="clip0_1323_6640">
<rect width="34" height="34" fill="white"/>
</clipPath>
</defs>
</svg>
